<svg width="24" height="26" viewBox="0 0 24 26" fill="none" xmlns="http://www.w3.org/2000/svg">
<path fill-rule="evenodd" clip-rule="evenodd" d="M1.75859 4.35981L10.7586 0.268901C11.5474 -0.0896335 12.4526 -0.0896335 13.2414 0.268901L22.2414 4.35981C23.3124 4.84662 24 5.91448 24 7.09091V18.5153C24 19.6917 23.3124 20.7595 22.2414 21.2464L13.2414 25.3373C12.4526 25.6958 11.5474 25.6958 10.7586 25.3373L1.75859 21.2464C0.687608 20.7595 0 19.6917 0 18.5153V7.09091C0 5.91448 0.687608 4.84662 1.75859 4.35981ZM21.4138 6.18054L12.4138 2.08963C12.1509 1.97012 11.8491 1.97012 11.5862 2.08963L2.5862 6.18054C2.2292 6.34281 2 6.69877 2 7.09091V18.5153C2 18.9074 2.2292 19.2634 2.5862 19.4256L11.5862 23.5165C11.8491 23.636 12.1509 23.636 12.4138 23.5165L21.4138 19.4256C21.7708 19.2634 22 18.9074 22 18.5153V7.09091C22 6.69877 21.7708 6.34281 21.4138 6.18054Z" fill="currentColor"/>
<path d="M12.4135 11.6235C12.1882 11.7259 11.9343 11.7405 11.7008 11.6674L11.5859 11.6235L0.585938 6.62347L1.41354 4.80273L11.9997 9.6151L22.5859 4.80273L23.4135 6.62347L12.4135 11.6235Z" fill="currentColor"/>
<path d="M11 24.8027L11 10.8027H13V24.8027H11Z" fill="currentColor"/>
</svg>
